HIERARCHY
ROOT Hips
{
	OFFSET 0.000000 0.000000 0.000000 
	CHANNELS 6 Xposition Yposition Zposition Zrotation Yrotation Xrotation
	JOINT LeftUpLeg
	{
		OFFSET 1.363060 -1.794630 0.839290 
		CHANNELS 3 Zrotation Yrotation Xrotation
		JOINT LeftLeg
		{
			OFFSET 2.448110 -6.726130 0.000000 
			CHANNELS 3 Zrotation Yrotation Xrotation
			JOINT LeftFoot
			{
				OFFSET 2.562200 -7.039590 0.000000 
				CHANNELS 3 Zrotation Yrotation Xrotation
				JOINT LeftToeBase
				{
					OFFSET 0.157640 -0.433110 2.322550 
					CHANNELS 3 Zrotation Yrotation Xrotation
					End Site
					{
						OFFSET 0.000000 0.000000 0.000000 
					}
				}
			}
		}
	}
	JOINT RightUpLeg
	{
		OFFSET -1.305520 -1.794630 0.839290 
		CHANNELS 3 Zrotation Yrotation Xrotation
		JOINT RightLeg
		{
			OFFSET -2.542530 -6.985550 0.000000 
			CHANNELS 3 Zrotation Yrotation Xrotation
			JOINT RightFoot
			{
				OFFSET -2.568260 -7.056230 0.000000 
				CHANNELS 3 Zrotation Yrotation Xrotation
				JOINT RightToeBase
				{
					OFFSET -0.164730 -0.452590 2.363150 
					CHANNELS 3 Zrotation Yrotation Xrotation
					End Site
					{
						OFFSET 0.000000 0.000000 0.000000 
					}
				}
			}
		}
	}
	JOINT Spine
	{
		OFFSET 0.028270 2.035590 -0.193380 
		CHANNELS 3 Zrotation Yrotation Xrotation
		JOINT Spine1
		{
			OFFSET 0.056720 2.048850 -0.042750 
			CHANNELS 3 Zrotation Yrotation Xrotation
			JOINT Neck1
			{
				OFFSET -0.054170 1.746240 0.172020 
				CHANNELS 3 Zrotation Yrotation Xrotation
				JOINT Head
				{
					OFFSET 0.104070 1.761360 -0.123970 
					CHANNELS 3 Zrotation Yrotation Xrotation
					End Site
					{
						OFFSET 0.000000 0.000000 0.000000 
					}
				}
			}
			JOINT LeftArm
			{
				OFFSET 3.362410 1.200890 -0.311210 
				CHANNELS 3 Zrotation Yrotation Xrotation
				JOINT LeftForeArm
				{
					OFFSET 4.983000 -0.000000 -0.000000 
					CHANNELS 3 Zrotation Yrotation Xrotation
					JOINT LeftHand
					{
						OFFSET 3.483560 -0.000000 -0.000000 
						CHANNELS 3 Zrotation Yrotation Xrotation
						JOINT LeftHandIndex1
						{
							OFFSET 0.715260 -0.000000 -0.000000 
							CHANNELS 3 Zrotation Yrotation Xrotation
							End Site
							{
								OFFSET 0.000000 0.000000 0.000000 
							}
						}
					}
				}
			}
			JOINT RightArm
			{
				OFFSET -3.136600 1.374050 -0.404650 
				CHANNELS 3 Zrotation Yrotation Xrotation
				JOINT RightForeArm
				{
					OFFSET -5.241900 -0.000000 -0.000000 
					CHANNELS 3 Zrotation Yrotation Xrotation
					JOINT RightHand
					{
						OFFSET -3.444170 -0.000000 -0.000000 
						CHANNELS 3 Zrotation Yrotation Xrotation
						JOINT RightHandIndex1
						{
							OFFSET -0.622530 -0.000000 -0.000000 
							CHANNELS 3 Zrotation Yrotation Xrotation
							End Site
							{
								OFFSET 0.000000 0.000000 0.000000 
							}
						}
					}
				}
			}
		}
	}
}
MOTION
Frames: 15
Frame Time: 0.041667
-7.871744 17.635808 -13.721097 -2.667444 -12.800505 5.243885 -9.261694 -8.239314 -34.540585 5.379408 13.986269 43.017856 0.236662 1.227402 8.121400 1.961700 -8.785900 -25.127900 33.016706 5.557152 -7.198332 -2.057048 -7.996720 27.056517 0.760342 -6.792967 -10.852695 -0.444800 -4.279300 11.863900 1.384609 0.984620 -1.359118 2.759608 0.597442 -1.469501 -0.839909 6.221282 18.046095 -0.483800 2.222100 10.498600 -85.929699 -4.563840 38.299918 14.184723 -27.977567 -4.212763 -0.663649 -1.232313 0.499848 -7.125000 0.000000 0.000000 80.720533 2.645748 21.908058 -15.252887 25.692942 -4.131817 0.316090 0.125265 19.084070 7.125000 0.000000 0.000000 
-7.870143 17.647114 -13.698385 -2.480709 -12.984136 5.197365 -9.237123 -8.125310 -34.932184 5.540905 14.172476 43.690042 0.242386 1.170646 8.027669 1.840200 -8.524900 -24.320200 32.765549 5.505163 -7.065314 -2.031430 -7.952109 26.913981 0.755174 -6.750026 -10.817348 -0.446200 -4.285900 11.882500 1.308800 1.157613 -1.382841 2.656476 0.682221 -1.625270 -0.806790 6.377649 18.110645 -0.458200 2.299000 10.510500 -85.774278 -4.154645 38.117443 14.715608 -28.644402 -4.465364 -0.669305 -1.204597 0.504360 -7.125000 0.000000 0.000000 80.801563 1.939053 22.426631 -15.795474 26.420912 -4.395253 0.294624 0.135034 19.102946 7.125000 0.000000 0.000000 
-7.870243 17.658720 -13.672871 -2.365388 -13.040067 5.049223 -9.097140 -8.172591 -35.187059 5.680785 14.328283 44.253316 0.223029 1.332351 8.001308 1.686800 -8.180800 -23.264700 32.620396 5.439009 -6.758277 -2.000514 -7.888174 26.728270 0.770865 -6.787081 -10.717817 -0.427700 -4.196900 11.631400 1.278264 1.217503 -1.378282 2.674241 0.709310 -1.733673 -0.658134 6.551338 18.099290 -0.328100 2.373600 10.440400 -85.820610 -3.768479 37.560181 15.524174 -29.637159 -4.869184 -0.608468 -1.244288 -0.720471 -7.125000 0.000000 0.000000 80.705694 1.251690 23.205617 -16.291464 27.089965 -4.642063 0.277262 0.135440 18.977524 7.125000 0.000000 0.000000 
-7.870543 17.669126 -13.649059 -2.175681 -12.873572 4.906149 -9.055856 -8.330502 -35.516130 5.805935 14.464779 44.757352 0.225331 1.372668 8.133801 1.668500 -8.138500 -23.135700 32.421183 5.293510 -6.530753 -1.971951 -7.832870 26.560783 0.806660 -6.949044 -10.687941 -0.413900 -4.129800 11.442100 1.221351 1.211182 -1.354107 2.607158 0.701945 -1.766022 -0.633388 6.657381 18.098886 -0.293600 2.418700 10.440100 -85.672133 -3.650926 37.329004 16.236380 -30.479331 -5.230531 -0.540583 -1.269776 -1.981144 -7.125000 0.000000 0.000000 80.757557 0.790836 23.838962 -16.751763 27.687243 -4.871665 0.264667 0.136888 18.813215 7.125000 0.000000 0.000000 
-7.871744 17.679632 -13.627447 -2.287441 -12.792970 4.906657 -8.677912 -8.302576 -35.951591 5.907208 14.594303 45.177652 0.239340 1.368341 8.338138 1.700800 -8.212900 -23.362500 32.540195 5.226798 -6.333795 -1.944897 -7.777564 26.400801 0.829891 -7.053769 -10.667377 -0.419600 -4.157700 11.520700 1.144519 1.355787 -1.323293 2.279777 0.773258 -1.741302 -0.568532 6.646796 18.124235 -0.274200 2.426500 10.488000 -85.351951 -3.583699 37.429942 16.911035 -31.255957 -5.574679 -0.505646 -1.280931 -2.754599 -7.125000 0.000000 0.000000 81.026123 0.311230 24.336432 -17.447197 28.559212 -5.224855 0.249228 0.142963 18.375631 7.125000 0.000000 0.000000 
-7.871944 17.696341 -13.602534 -2.097100 -12.974978 4.880596 -8.675866 -8.193790 -36.187936 5.982168 14.679376 45.475654 0.215202 1.530010 8.215308 1.739700 -8.301500 -23.633800 32.286509 5.350852 -6.140585 -1.925005 -7.744071 26.288436 0.843831 -7.080037 -10.550412 -0.406400 -4.092400 11.336900 1.036221 1.599539 -1.277110 2.071287 0.890315 -1.651915 -0.546081 6.632072 18.091793 -0.274100 2.429100 10.503800 -85.095275 -3.534617 37.570923 17.622393 -32.061309 -5.938770 -0.570219 -1.207943 -3.511424 -7.125000 0.000000 0.000000 81.211576 -0.159061 25.071448 -18.269302 29.553646 -5.649187 0.244233 0.171933 17.872773 7.125000 0.000000 0.000000 
-7.870843 17.715151 -13.571117 -1.819479 -13.027214 4.806832 -8.789363 -8.191508 -36.318219 6.039326 14.734570 45.687230 0.170992 1.837828 8.097697 1.727700 -8.274300 -23.550300 31.926376 5.412271 -5.939223 -1.911475 -7.722159 26.213304 0.831483 -7.000032 -10.508665 -0.460000 -4.350500 12.065000 0.916395 1.778861 -1.254170 1.860768 0.976077 -1.608770 -0.465986 6.558674 18.168736 -0.252200 2.408500 10.549000 -84.846013 -3.418626 37.626051 18.179486 -32.675606 -6.227820 -0.638167 -1.105464 -3.599846 -7.125000 0.000000 0.000000 81.382056 -0.663718 25.693480 -18.935682 30.351180 -6.003221 0.238329 0.184207 17.450468 7.125000 0.000000 0.000000 
-7.866741 17.724956 -13.539600 -1.518893 -13.001480 4.740047 -8.936240 -8.248324 -36.511574 6.075736 14.771964 45.825032 0.141005 2.038742 8.002209 1.720600 -8.258100 -23.500900 31.557369 5.418443 -5.798294 -1.896801 -7.699367 26.133426 0.851181 -7.090793 -10.503680 -0.443100 -4.271100 11.840600 0.847294 1.779834 -1.273992 1.832776 0.975091 -1.676733 -0.267720 6.680423 18.232014 -0.103500 2.462700 10.498700 -84.833894 -3.074324 37.283383 18.757314 -33.315124 -6.548492 -0.598199 -1.119578 -3.700095 -7.125000 0.000000 0.000000 81.364855 -1.238529 26.489613 -19.492768 31.024738 -6.305187 0.234340 0.162433 17.103139 7.125000 0.000000 0.000000 
-7.865941 17.732760 -13.511785 -1.445556 -13.103129 4.773190 -8.752355 -8.214086 -36.789681 6.091117 14.807148 45.898572 0.134190 2.105565 7.988111 1.624700 -8.036100 -22.823800 31.468678 5.504363 -5.721358 -1.877524 -7.665475 26.022525 0.902653 -7.312057 -10.410022 -0.399200 -4.056400 11.235300 0.831786 1.776561 -1.292873 1.884536 0.973428 -1.747120 -0.177073 6.907839 18.230242 -0.005900 2.560500 10.414700 -84.825182 -2.770173 36.868608 19.372015 -33.988806 -6.899714 -0.559317 -1.158382 -3.959784 -7.125000 0.000000 0.000000 81.240919 -1.669347 27.637460 -20.094355 31.725920 -6.631122 0.234993 0.151282 16.457370 7.125000 0.000000 0.000000 
-7.862839 17.740464 -13.483369 -1.648966 -13.094941 4.915250 -8.255243 -8.266311 -37.114704 6.086960 14.833202 45.902399 0.138814 2.129428 8.070487 1.257300 -7.108300 -20.036500 31.664439 5.581815 -5.631729 -1.855141 -7.620950 25.888504 0.936985 -7.442865 -10.292292 -0.400700 -4.064300 11.257600 0.799121 1.859088 -1.261123 1.669354 1.016974 -1.629630 -0.112149 6.921381 18.195082 0.033400 2.573100 10.395300 -84.616799 -2.657611 36.896683 20.027350 -34.682841 -7.272117 -0.500809 -1.202414 -4.101637 -7.125000 0.000000 0.000000 81.338753 -1.825926 28.412689 -20.759773 32.472841 -6.999539 0.230834 0.147458 15.808736 7.125000 0.000000 0.000000 
-7.860338 17.753171 -13.453853 -1.766499 -13.074417 4.958654 -7.887181 -8.324433 -37.248555 6.047671 14.813037 45.758991 0.132687 2.192416 8.067201 0.580000 -4.876700 -13.557300 31.768138 5.561397 -5.450671 -1.831519 -7.568702 25.735905 0.984044 -7.607795 -10.089417 -0.382800 -3.973300 11.001500 0.751236 1.976318 -1.251287 1.440265 1.076788 -1.667950 -0.215408 6.941196 18.099385 -0.037500 2.589300 10.382200 -84.399911 -2.524866 36.979247 20.637368 -35.301833 -7.614194 -0.508012 -1.153313 -4.043738 -7.125000 0.000000 0.000000 81.451630 -2.187016 29.177137 -21.674393 33.461320 -7.517156 0.226676 0.151527 14.977624 7.125000 0.000000 0.000000 
-7.852033 17.756073 -13.423437 -1.771679 -13.018575 5.044045 -7.671073 -8.442455 -37.414313 5.967554 14.749065 45.455764 0.137018 2.209856 8.176158 0.474300 -4.416700 -12.252200 31.728916 5.500142 -5.389169 -1.808172 -7.522931 25.590872 1.036899 -7.809939 -9.910235 -0.320600 -3.639300 10.064100 0.694804 2.033605 -1.269898 1.249988 1.106218 -1.771776 -0.212683 7.006073 18.052880 -0.032600 2.623000 10.370800 -84.193132 -2.383675 37.058213 21.177427 -35.821940 -7.909182 -0.660218 -0.917519 -4.169640 -7.125000 0.000000 0.000000 81.539648 -2.689359 29.987249 -22.722092 34.560864 -8.125574 0.223727 0.152898 14.166806 7.125000 0.000000 0.000000 
-7.843128 17.763477 -13.391019 -1.645757 -12.854647 4.995344 -7.639344 -8.707268 -37.323839 5.837934 14.616248 44.941066 0.136836 2.235859 8.271907 0.678500 -5.266900 -14.671500 31.547549 5.359571 -5.287361 -1.797326 -7.501628 25.527987 1.052765 -7.912089 -10.006764 -0.292300 -3.476800 9.609000 0.656147 1.957616 -1.285890 1.198835 1.066284 -1.870851 0.022146 7.076706 18.170033 0.156500 2.636700 10.402200 -84.186329 -2.108238 36.807731 21.741156 -36.411091 -8.268179 -0.391174 -1.251492 -4.630255 -7.125000 0.000000 0.000000 81.506356 -3.278871 30.867988 -23.740341 35.602176 -8.732021 0.224964 0.149844 13.882050 7.125000 0.000000 0.000000 
-7.835624 17.772081 -13.354900 -1.471110 -12.676570 4.922999 -7.687899 -8.961994 -37.144263 5.677938 14.445395 44.302307 0.138829 2.188274 8.235983 1.051800 -6.521400 -18.305000 31.332278 5.418655 -5.090099 -1.791608 -7.491865 25.501247 1.074144 -8.068067 -10.191163 -0.330300 -3.693800 10.216700 0.603647 1.857633 -1.295169 1.125610 1.014102 -1.883805 0.344524 7.126805 18.546373 0.385500 2.638400 10.585100 -84.163269 -1.667460 36.597689 22.313746 -36.964215 -8.605257 -0.393150 -1.175500 -5.100734 -7.125000 0.000000 0.000000 81.460319 -3.820294 31.769169 -24.758524 36.609916 -9.351961 0.226935 0.148276 13.261605 7.125000 0.000000 0.000000 
-7.829721 17.783888 -13.313178 -1.236503 -12.684636 4.990182 -7.805873 -9.090064 -37.021935 5.492389 14.249222 43.557278 0.138024 2.177536 8.228892 1.387900 -7.453800 -21.066900 30.996590 5.506085 -5.092192 -1.793341 -7.504623 25.521967 1.074613 -8.072481 -10.202139 -0.331700 -3.701400 10.238200 0.523906 1.868074 -1.274805 1.022001 1.018329 -1.727407 0.465724 7.095416 18.721601 0.452200 2.624500 10.673300 -84.023870 -1.353166 36.507320 22.884606 -37.524482 -8.955018 -0.372913 -1.176927 -5.350436 -7.125000 0.000000 0.000000 81.540421 -4.072159 32.524011 -25.622790 37.438852 -9.883451 0.232290 0.128129 12.911162 7.125000 0.000000 0.000000 
